<svg xmlns="http://www.w3.org/2000/svg" viewBox="0 0 64 64" fill="none">
  <defs>
    <linearGradient id="gold" x1="0%" y1="0%" x2="100%" y2="100%">
      <stop offset="0%" stop-color="#ffe566"/>
      <stop offset="50%" stop-color="#e8c547"/>
      <stop offset="100%" stop-color="#8a6f1e"/>
    </linearGradient>
    <radialGradient id="iris" cx="42%" cy="38%" r="55%">
      <stop offset="0%" stop-color="#fffef0"/>
      <stop offset="40%" stop-color="#e8c547"/>
      <stop offset="100%" stop-color="#5c4a12"/>
    </radialGradient>
  </defs>
  <rect width="64" height="64" rx="6" fill="#050508"/>
  <path d="M8 10 L56 10 L58 12 L58 52 L56 54 L8 54 L6 52 L6 12 Z" fill="#0a0a12" stroke="url(#gold)" stroke-width="0.8" opacity="0.6"/>
  <path d="M32 14 C18 14 10 24 12 36 C14 44 22 48 32 46" fill="none" stroke="url(#gold)" stroke-width="1.2" opacity="0.7"/>
  <path d="M32 14 C46 14 54 24 52 36 C50 44 42 48 32 46" fill="none" stroke="url(#gold)" stroke-width="1.2" opacity="0.7"/>
  <path d="M32 50 C24 42 20 34 22 26 C24 18 28 14 32 14" fill="none" stroke="url(#gold)" stroke-width="1.2" opacity="0.6"/>
  <ellipse cx="32" cy="32" rx="7" ry="9" fill="url(#iris)"/>
  <ellipse cx="32" cy="32" rx="1.1" ry="5.5" fill="#050508"/>
  <ellipse cx="29.5" cy="29" rx="1.8" ry="2.2" fill="#fffef0" opacity="0.5"/>
  <path d="M26 18 L32 12 L38 18 L36 20 L32 16 L28 20 Z" fill="url(#gold)" opacity="0.8"/>
</svg>
